<svg preserveAspectRatio="none" overflow="visible" style="display: block;" width="24.2" height="24.2" viewBox="0 0 24.2 24.2" fill="none" xmlns="http://www.w3.org/2000/svg">
<g id="Frame">
<path id="Vector" d="M2.01667 7.05832L6.46342 2.61158C6.65103 2.42285 6.87413 2.27312 7.11988 2.17101C7.36562 2.06891 7.62914 2.01645 7.89525 2.01666H16.3048C16.5709 2.01645 16.8344 2.06891 17.0801 2.17101C17.3259 2.27312 17.549 2.42285 17.7366 2.61158L22.1833 7.05832" stroke="#757575" stroke-linecap="round" stroke-linejoin="round"/>
<path id="Vector_2" d="M4.03333 12.1V20.1666C4.03333 20.7015 4.2458 21.2144 4.624 21.5926C5.0022 21.9708 5.51515 22.1833 6.05 22.1833H18.15C18.6849 22.1833 19.1978 21.9708 19.576 21.5926C19.9542 21.2144 20.1667 20.7015 20.1667 20.1666V12.1" stroke="#757575" stroke-linecap="round" stroke-linejoin="round"/>
<path id="Vector_3" d="M15.125 22.1833V18.15C15.125 17.6151 14.9125 17.1022 14.5343 16.724C14.1561 16.3458 13.6432 16.1333 13.1083 16.1333H11.0917C10.5568 16.1333 10.0439 16.3458 9.66567 16.724C9.28747 17.1022 9.075 17.6151 9.075 18.15V22.1833" stroke="#757575" stroke-linecap="round" stroke-linejoin="round"/>
<path id="Vector_4" d="M2.01667 7.05832H22.1833" stroke="#757575" stroke-linecap="round" stroke-linejoin="round"/>
<path id="Vector_5" d="M22.1833 7.05832V10.0833C22.1833 10.6182 21.9709 11.1311 21.5927 11.5093C21.2145 11.8875 20.7015 12.1 20.1667 12.1C19.5775 12.0675 19.0149 11.8446 18.5634 11.4647C18.4431 11.3778 18.2984 11.331 18.15 11.331C18.0016 11.331 17.8569 11.3778 17.7366 11.4647C17.2851 11.8446 16.7225 12.0675 16.1333 12.1C15.5442 12.0675 14.9815 11.8446 14.5301 11.4647C14.4098 11.3778 14.2651 11.331 14.1167 11.331C13.9682 11.331 13.8236 11.3778 13.7033 11.4647C13.2518 11.8446 12.6891 12.0675 12.1 12.1C11.5109 12.0675 10.9482 11.8446 10.4968 11.4647C10.3764 11.3778 10.2318 11.331 10.0833 11.331C9.93489 11.331 9.79023 11.3778 9.66992 11.4647C9.21846 11.8446 8.6558 12.0675 8.06667 12.1C7.47753 12.0675 6.91488 11.8446 6.46342 11.4647C6.3431 11.3778 6.19844 11.331 6.05 11.331C5.90156 11.331 5.7569 11.3778 5.63658 11.4647C5.18512 11.8446 4.62247 12.0675 4.03333 12.1C3.49848 12.1 2.98553 11.8875 2.60733 11.5093C2.22914 11.1311 2.01667 10.6182 2.01667 10.0833V7.05832" stroke="#757575" stroke-linecap="round" stroke-linejoin="round"/>
</g>
</svg>
